<svg width="24" height="24" viewBox="0 0 24 24" fill="none" xmlns="http://www.w3.org/2000/svg">
<path d="M11.6311 3.00958C11.776 2.99715 11.9854 2.99973 12.1314 3.00152C14.5198 3.03789 16.7959 4.04636 18.4584 5.80463C20.119 7.55745 21.0328 9.91437 20.9991 12.3575C20.9689 14.8235 19.9731 17.1735 18.2357 18.8792C17.384 19.7159 16.3825 20.376 15.2865 20.8232C15.0182 20.9299 14.6257 21.1268 14.3752 20.8838C14.2158 20.7291 14.2469 20.5077 14.2448 20.3015C14.2437 20.1912 14.2475 20.0787 14.2492 19.9681C14.2527 19.5338 14.2538 19.0993 14.2524 18.665C14.2529 17.7594 14.3206 17.0198 13.6634 16.3126C14.6979 16.1757 15.7116 15.9451 16.5202 15.2157C17.3779 14.4421 17.6806 13.3347 17.7456 12.2068C17.812 11.0542 17.5994 10.147 16.8377 9.26644C17.1209 8.38175 17.0477 7.66546 16.7404 6.81188C15.9653 6.68321 14.8789 7.3217 14.2546 7.75523C14.0178 7.70442 13.8068 7.63962 13.5584 7.59485C12.2263 7.35488 11.0546 7.41994 9.7509 7.75725C9.13369 7.34765 8.02472 6.66222 7.26549 6.81418C7.19075 6.9374 7.14306 7.14173 7.10572 7.28412C6.92472 7.97425 6.95515 8.57387 7.15727 9.25273C7.10729 9.3463 6.95728 9.50935 6.88759 9.61167C6.5912 10.0437 6.39033 10.5369 6.29897 11.0567C6.11169 12.1429 6.33593 13.7358 6.97951 14.6473C7.64066 15.5838 8.55706 15.9949 9.63361 16.2115C9.86402 16.2578 10.0862 16.283 10.3149 16.3227C9.95393 16.7243 9.87979 17.0282 9.76755 17.5386C9.47752 17.6836 9.09687 17.7716 8.7754 17.7789C8.16741 17.7927 7.65613 17.4912 7.30864 16.9883C7.13291 16.734 7.05516 16.5558 6.81995 16.3237C6.53228 16.0305 6.14453 15.8227 5.73254 15.8236C5.62453 15.8239 5.3166 15.8666 5.37014 16.0338C5.43313 16.2304 5.72118 16.3906 5.87732 16.5123C5.9453 16.5659 6.0094 16.6244 6.06911 16.6876C6.428 17.0609 6.59517 17.4758 6.79369 17.9397C6.93359 18.231 7.1695 18.5092 7.42948 18.6899C8.13506 19.1803 8.95364 19.1435 9.74676 18.9935C9.75304 19.2854 9.75326 19.5961 9.75088 19.8899C9.74873 20.1538 9.82113 20.6582 9.64278 20.861C9.39315 21.1447 8.94065 20.9177 8.65666 20.799C7.60568 20.3643 6.64363 19.7313 5.82047 18.9329C4.07803 17.2529 3.06363 14.9281 3.00341 12.4768C2.93812 10.0451 3.81323 7.68553 5.43797 5.91248C7.03855 4.17696 9.293 3.07625 11.6311 3.00958Z" fill="#000926"/>
</svg>
