<svg width="24" height="24" viewBox="0 0 24 24" fill="none" xmlns="http://www.w3.org/2000/svg">
<path d="M9.81738 6C10.2067 6.00017 10.5293 6.32349 10.5293 6.71289C10.5291 7.10211 10.2066 7.42463 9.81738 7.4248H8.47754C5.98855 7.42482 3.96486 9.44851 3.96484 11.9375C3.96484 14.4265 5.98854 16.4502 8.47754 16.4502H9.81738C10.2066 16.4504 10.5291 16.7729 10.5293 17.1621C10.5293 17.5515 10.2067 17.8748 9.81738 17.875H8.47754C5.20004 17.875 2.54004 15.215 2.54004 11.9375C2.54005 8.66001 5.20004 6.00001 8.47754 6H9.81738ZM15.5264 6C18.8039 6 21.4639 8.66 21.4639 11.9375C21.4639 15.215 18.8039 17.875 15.5264 17.875H14.1875C13.798 17.875 13.4746 17.5516 13.4746 17.1621C13.4748 16.7728 13.7981 16.4502 14.1875 16.4502H15.5264C18.0154 16.4502 20.0391 14.4265 20.0391 11.9375C20.039 9.4485 18.0154 7.4248 15.5264 7.4248H14.1875C13.7981 7.4248 13.4748 7.10222 13.4746 6.71289C13.4746 6.32339 13.798 6 14.1875 6H15.5264ZM16.3721 11.2246C16.7616 11.2246 17.0849 11.548 17.085 11.9375C17.085 12.327 16.7616 12.6504 16.3721 12.6504H7.62305C7.23355 12.6504 6.91016 12.327 6.91016 11.9375C6.91017 11.548 7.23355 11.2246 7.62305 11.2246H16.3721Z" fill="#000926"/>
</svg>
